<svg aria-roledescription="er" role="graphics-document document" viewBox="-3.5867233276367188 0 570.2449340820312 583"
     style="max-width: 570.245px; background-color: white;"
     xmlns="http://www.w3.org/2000/svg" width="100%" id="mermaid-1704734576421"><style>#mermaid-1704734576421{font-family:"trebuchet ms",verdana,arial,sans-serif;font-size:16px;fill:#333;}#mermaid-1704734576421 .error-icon{fill:#552222;}#mermaid-1704734576421 .error-text{fill:#552222;stroke:#552222;}#mermaid-1704734576421 .edge-thickness-normal{stroke-width:2px;}#mermaid-1704734576421 .edge-thickness-thick{stroke-width:3.5px;}#mermaid-1704734576421 .edge-pattern-solid{stroke-dasharray:0;}#mermaid-1704734576421 .edge-pattern-dashed{stroke-dasharray:3;}#mermaid-1704734576421 .edge-pattern-dotted{stroke-dasharray:2;}#mermaid-1704734576421 .marker{fill:#333333;stroke:#333333;}#mermaid-1704734576421 .marker.cross{stroke:#333333;}#mermaid-1704734576421 svg{font-family:"trebuchet ms",verdana,arial,sans-serif;font-size:16px;}#mermaid-1704734576421 .entityBox{fill:#ECECFF;stroke:#9370DB;}#mermaid-1704734576421 .attributeBoxOdd{fill:#ffffff;stroke:#9370DB;}#mermaid-1704734576421 .attributeBoxEven{fill:#f2f2f2;stroke:#9370DB;}#mermaid-1704734576421 .relationshipLabelBox{fill:hsl(80, 100%, 96.2745098039%);opacity:0.7;background-color:hsl(80, 100%, 96.2745098039%);}#mermaid-1704734576421 .relationshipLabelBox rect{opacity:0.5;}#mermaid-1704734576421 .relationshipLine{stroke:#333333;}#mermaid-1704734576421 .entityTitleText{text-anchor:middle;font-size:18px;fill:#333;}#mermaid-1704734576421 :root{--mermaid-font-family:"trebuchet ms",verdana,arial,sans-serif;}</style><g/><defs><marker orient="auto" markerHeight="18" markerWidth="18" refY="9" refX="0" id="ONLY_ONE_START"><path d="M9,0 L9,18 M15,0 L15,18" fill="none" stroke="gray"/></marker></defs><defs><marker orient="auto" markerHeight="18" markerWidth="18" refY="9" refX="18" id="ONLY_ONE_END"><path d="M3,0 L3,18 M9,0 L9,18" fill="none" stroke="gray"/></marker></defs><defs><marker orient="auto" markerHeight="18" markerWidth="30" refY="9" refX="0" id="ZERO_OR_ONE_START"><circle r="6" cy="9" cx="21" fill="white" stroke="gray"/><path d="M9,0 L9,18" fill="none" stroke="gray"/></marker></defs><defs><marker orient="auto" markerHeight="18" markerWidth="30" refY="9" refX="30" id="ZERO_OR_ONE_END"><circle r="6" cy="9" cx="9" fill="white" stroke="gray"/><path d="M21,0 L21,18" fill="none" stroke="gray"/></marker></defs><defs><marker orient="auto" markerHeight="36" markerWidth="45" refY="18" refX="18" id="ONE_OR_MORE_START"><path d="M0,18 Q 18,0 36,18 Q 18,36 0,18 M42,9 L42,27" fill="none" stroke="gray"/></marker></defs><defs><marker orient="auto" markerHeight="36" markerWidth="45" refY="18" refX="27" id="ONE_OR_MORE_END"><path d="M3,9 L3,27 M9,18 Q27,0 45,18 Q27,36 9,18" fill="none" stroke="gray"/></marker></defs><defs><marker orient="auto" markerHeight="36" markerWidth="57" refY="18" refX="18" id="ZERO_OR_MORE_START"><circle r="6" cy="18" cx="48" fill="white" stroke="gray"/><path d="M0,18 Q18,0 36,18 Q18,36 0,18" fill="none" stroke="gray"/></marker></defs><defs><marker orient="auto" markerHeight="36" markerWidth="57" refY="18" refX="39" id="ZERO_OR_MORE_END"><circle r="6" cy="18" cx="9" fill="white" stroke="gray"/><path d="M21,18 Q39,0 57,18 Q39,36 21,18" fill="none" stroke="gray"/></marker></defs><path style="stroke: gray; fill: none;" marker-start="url(#ONLY_ONE_START)" marker-end="url(#ZERO_OR_MORE_END)" d="M139.99365234375,85.42590907249205L122.21622721354167,95.35492422707671C104.43880208333333,105.28393938166137,68.88395182291667,125.14196969083069,51.106526692708336,154.57098484541532C33.3291015625,184,33.3291015625,223,33.3291015625,262C33.3291015625,301,33.3291015625,340,36.89035512375356,367.8333333333333C40.45160868500712,395.6666666666667,47.57411580751424,412.3333333333333,51.135369368767805,420.6666666666667L54.69662293002136,429" class="er relationshipLine"/><path style="stroke: gray; fill: none;" marker-start="url(#ONLY_ONE_START)" marker-end="url(#ZERO_OR_MORE_END)" d="M246.658203125,299.34092984550364L228.88077799479166,312.61744153791966C211.10335286458334,325.89395323033574,175.54850260416666,352.44697661516784,153.73514080862714,374.05682164091724C131.92177901308762,395.6666666666667,123.84990568242522,412.3333333333333,119.81396901709401,420.6666666666667L115.77803235176282,429" class="er relationshipLine"/><path style="stroke: gray; fill: none;" marker-start="url(#ZERO_OR_MORE_START)" marker-end="url(#ONE_OR_MORE_END)" d="M296.658203125,329L296.658203125,337.3333333333333C296.658203125,345.6666666666667,296.658203125,362.3333333333333,296.658203125,386.3333333333333C296.658203125,410.3333333333333,296.658203125,441.6666666666667,296.658203125,457.3333333333333L296.658203125,473" class="er relationshipLine"/><path style="stroke: gray; fill: none;" marker-start="url(#ONLY_ONE_START)" marker-end="url(#ONE_OR_MORE_END)" d="M346.658203125,291.25L371.658203125,305.875C396.658203125,320.5,446.658203125,349.75,471.658203125,378.2083333333333C496.658203125,406.6666666666667,496.658203125,434.3333333333333,496.658203125,448.1666666666667L496.658203125,462" class="er relationshipLine"/><path style="stroke: gray; fill: none;" marker-start="url(#ZERO_OR_ONE_START)" marker-end="url(#ONLY_ONE_END)" d="M235.70703125,95L245.86555989583334,103.33333333333333C256.0240885416667,111.66666666666667,276.3411458333333,128.33333333333334,286.4996744791667,145C296.658203125,161.66666666666666,296.658203125,178.33333333333334,296.658203125,186.66666666666666L296.658203125,195" class="er relationshipLine"/><g transform="translate(139.99365234375,20 )" id="entity-USER-6e7e2962-0c6f-577d-a7fd-2ce3a0cfd2c8"><rect height="75" width="100" y="0" x="0" class="er entityBox"/><text style="dominant-baseline: middle; text-anchor: middle; font-size: 12px;" transform="translate(50,37.5)" y="0" x="0" id="text-entity-USER-6e7e2962-0c6f-577d-a7fd-2ce3a0cfd2c8" class="er entityLabel">USER</text></g><g transform="translate(20,429 )" id="entity-BORROWREQUEST-bba76718-867b-5f9c-aab2-24294be4a3ce"><rect height="134" width="126.658203125" y="0" x="0" class="er entityBox"/><text style="dominant-baseline: middle; text-anchor: middle; font-size: 12px;" transform="translate(63.3291015625,12)" y="0" x="0" id="text-entity-BORROWREQUEST-bba76718-867b-5f9c-aab2-24294be4a3ce" class="er entityLabel">BORROWREQUEST</text><rect height="22" width="55.789215087890625" y="24" x="0" class="er attributeBoxOdd"/><text style="dominant-baseline: middle; font-size: 10.2px;" transform="translate(5,35)" y="0" x="0" id="text-entity-BORROWREQUEST-bba76718-867b-5f9c-aab2-24294be4a3ce-attr-1-type" class="er entityLabel">integer</text><rect height="22" width="70.86898803710938" y="24" x="55.789215087890625" class="er attributeBoxOdd"/><text style="dominant-baseline: middle; font-size: 10.2px;" transform="translate(60.789215087890625,35)" y="0" x="0" id="text-entity-BORROWREQUEST-bba76718-867b-5f9c-aab2-24294be4a3ce-attr-1-name" class="er entityLabel">status</text><rect height="22" width="55.789215087890625" y="46" x="0" class="er attributeBoxEven"/><text style="dominant-baseline: middle; font-size: 10.2px;" transform="translate(5,57)" y="0" x="0" id="text-entity-BORROWREQUEST-bba76718-867b-5f9c-aab2-24294be4a3ce-attr-2-type" class="er entityLabel">date</text><rect height="22" width="70.86898803710938" y="46" x="55.789215087890625" class="er attributeBoxEven"/><text style="dominant-baseline: middle; font-size: 10.2px;" transform="translate(60.789215087890625,57)" y="0" x="0" id="text-entity-BORROWREQUEST-bba76718-867b-5f9c-aab2-24294be4a3ce-attr-2-name" class="er entityLabel">requested</text><rect height="22" width="55.789215087890625" y="68" x="0" class="er attributeBoxOdd"/><text style="dominant-baseline: middle; font-size: 10.2px;" transform="translate(5,79)" y="0" x="0" id="text-entity-BORROWREQUEST-bba76718-867b-5f9c-aab2-24294be4a3ce-attr-3-type" class="er entityLabel">date</text><rect height="22" width="70.86898803710938" y="68" x="55.789215087890625" class="er attributeBoxOdd"/><text style="dominant-baseline: middle; font-size: 10.2px;" transform="translate(60.789215087890625,79)" y="0" x="0" id="text-entity-BORROWREQUEST-bba76718-867b-5f9c-aab2-24294be4a3ce-attr-3-name" class="er entityLabel">approved</text><rect height="22" width="55.789215087890625" y="90" x="0" class="er attributeBoxEven"/><text style="dominant-baseline: middle; font-size: 10.2px;" transform="translate(5,101)" y="0" x="0" id="text-entity-BORROWREQUEST-bba76718-867b-5f9c-aab2-24294be4a3ce-attr-4-type" class="er entityLabel">date</text><rect height="22" width="70.86898803710938" y="90" x="55.789215087890625" class="er attributeBoxEven"/><text style="dominant-baseline: middle; font-size: 10.2px;" transform="translate(60.789215087890625,101)" y="0" x="0" id="text-entity-BORROWREQUEST-bba76718-867b-5f9c-aab2-24294be4a3ce-attr-4-name" class="er entityLabel">due_date</text><rect height="22" width="55.789215087890625" y="112" x="0" class="er attributeBoxOdd"/><text style="dominant-baseline: middle; font-size: 10.2px;" transform="translate(5,123)" y="0" x="0" id="text-entity-BORROWREQUEST-bba76718-867b-5f9c-aab2-24294be4a3ce-attr-5-type" class="er entityLabel">date</text><rect height="22" width="70.86898803710938" y="112" x="55.789215087890625" class="er attributeBoxOdd"/><text style="dominant-baseline: middle; font-size: 10.2px;" transform="translate(60.789215087890625,123)" y="0" x="0" id="text-entity-BORROWREQUEST-bba76718-867b-5f9c-aab2-24294be4a3ce-attr-5-name" class="er entityLabel">completed</text></g><g transform="translate(246.658203125,195 )" id="entity-BOOK-12b90bf2-7af7-5ded-a124-d6647c4b972e"><rect height="134" width="100" y="0" x="0" class="er entityBox"/><text style="dominant-baseline: middle; text-anchor: middle; font-size: 12px;" transform="translate(50,12)" y="0" x="0" id="text-entity-BOOK-12b90bf2-7af7-5ded-a124-d6647c4b972e" class="er entityLabel">BOOK</text><rect height="22" width="41.74932861328125" y="24" x="0" class="er attributeBoxOdd"/><text style="dominant-baseline: middle; font-size: 10.2px;" transform="translate(5,35)" y="0" x="0" id="text-entity-BOOK-12b90bf2-7af7-5ded-a124-d6647c4b972e-attr-1-type" class="er entityLabel">string</text><rect height="22" width="58.25067138671875" y="24" x="41.74932861328125" class="er attributeBoxOdd"/><text style="dominant-baseline: middle; font-size: 10.2px;" transform="translate(46.74932861328125,35)" y="0" x="0" id="text-entity-BOOK-12b90bf2-7af7-5ded-a124-d6647c4b972e-attr-1-name" class="er entityLabel">title</text><rect height="22" width="41.74932861328125" y="46" x="0" class="er attributeBoxEven"/><text style="dominant-baseline: middle; font-size: 10.2px;" transform="translate(5,57)" y="0" x="0" id="text-entity-BOOK-12b90bf2-7af7-5ded-a124-d6647c4b972e-attr-2-type" class="er entityLabel">string</text><rect height="22" width="58.25067138671875" y="46" x="41.74932861328125" class="er attributeBoxEven"/><text style="dominant-baseline: middle; font-size: 10.2px;" transform="translate(46.74932861328125,57)" y="0" x="0" id="text-entity-BOOK-12b90bf2-7af7-5ded-a124-d6647c4b972e-attr-2-name" class="er entityLabel">isbn</text><rect height="22" width="41.74932861328125" y="68" x="0" class="er attributeBoxOdd"/><text style="dominant-baseline: middle; font-size: 10.2px;" transform="translate(5,79)" y="0" x="0" id="text-entity-BOOK-12b90bf2-7af7-5ded-a124-d6647c4b972e-attr-3-type" class="er entityLabel">text</text><rect height="22" width="58.25067138671875" y="68" x="41.74932861328125" class="er attributeBoxOdd"/><text style="dominant-baseline: middle; font-size: 10.2px;" transform="translate(46.74932861328125,79)" y="0" x="0" id="text-entity-BOOK-12b90bf2-7af7-5ded-a124-d6647c4b972e-attr-3-name" class="er entityLabel">summary</text><rect height="22" width="41.74932861328125" y="90" x="0" class="er attributeBoxEven"/><text style="dominant-baseline: middle; font-size: 10.2px;" transform="translate(5,101)" y="0" x="0" id="text-entity-BOOK-12b90bf2-7af7-5ded-a124-d6647c4b972e-attr-4-type" class="er entityLabel">bool</text><rect height="22" width="58.25067138671875" y="90" x="41.74932861328125" class="er attributeBoxEven"/><text style="dominant-baseline: middle; font-size: 10.2px;" transform="translate(46.74932861328125,101)" y="0" x="0" id="text-entity-BOOK-12b90bf2-7af7-5ded-a124-d6647c4b972e-attr-4-name" class="er entityLabel">status</text><rect height="22" width="41.74932861328125" y="112" x="0" class="er attributeBoxOdd"/><text style="dominant-baseline: middle; font-size: 10.2px;" transform="translate(5,123)" y="0" x="0" id="text-entity-BOOK-12b90bf2-7af7-5ded-a124-d6647c4b972e-attr-5-type" class="er entityLabel">string</text><rect height="22" width="58.25067138671875" y="112" x="41.74932861328125" class="er attributeBoxOdd"/><text style="dominant-baseline: middle; font-size: 10.2px;" transform="translate(46.74932861328125,123)" y="0" x="0" id="text-entity-BOOK-12b90bf2-7af7-5ded-a124-d6647c4b972e-attr-5-name" class="er entityLabel">publisher</text></g><g transform="translate(246.658203125,473 )" id="entity-GENRE-96296feb-ea5a-54c6-ae22-bd530bbdc93d"><rect height="46" width="100" y="0" x="0" class="er entityBox"/><text style="dominant-baseline: middle; text-anchor: middle; font-size: 12px;" transform="translate(50,12)" y="0" x="0" id="text-entity-GENRE-96296feb-ea5a-54c6-ae22-bd530bbdc93d" class="er entityLabel">GENRE</text><rect height="22" width="50.61009216308594" y="24" x="0" class="er attributeBoxOdd"/><text style="dominant-baseline: middle; font-size: 10.2px;" transform="translate(5,35)" y="0" x="0" id="text-entity-GENRE-96296feb-ea5a-54c6-ae22-bd530bbdc93d-attr-1-type" class="er entityLabel">string</text><rect height="22" width="49.38990783691406" y="24" x="50.61009216308594" class="er attributeBoxOdd"/><text style="dominant-baseline: middle; font-size: 10.2px;" transform="translate(55.61009216308594,35)" y="0" x="0" id="text-entity-GENRE-96296feb-ea5a-54c6-ae22-bd530bbdc93d-attr-1-name" class="er entityLabel">name</text></g><g transform="translate(446.658203125,462 )" id="entity-AUTHOR-c8b9204d-0c02-5422-8f8d-d29ca9ffce24"><rect height="68" width="100" y="0" x="0" class="er entityBox"/><text style="dominant-baseline: middle; text-anchor: middle; font-size: 12px;" transform="translate(50,12)" y="0" x="0" id="text-entity-AUTHOR-c8b9204d-0c02-5422-8f8d-d29ca9ffce24" class="er entityLabel">AUTHOR</text><rect height="22" width="50.61009216308594" y="24" x="0" class="er attributeBoxOdd"/><text style="dominant-baseline: middle; font-size: 10.2px;" transform="translate(5,35)" y="0" x="0" id="text-entity-AUTHOR-c8b9204d-0c02-5422-8f8d-d29ca9ffce24-attr-1-type" class="er entityLabel">string</text><rect height="22" width="49.38990783691406" y="24" x="50.61009216308594" class="er attributeBoxOdd"/><text style="dominant-baseline: middle; font-size: 10.2px;" transform="translate(55.61009216308594,35)" y="0" x="0" id="text-entity-AUTHOR-c8b9204d-0c02-5422-8f8d-d29ca9ffce24-attr-1-name" class="er entityLabel">name</text><rect height="22" width="50.61009216308594" y="46" x="0" class="er attributeBoxEven"/><text style="dominant-baseline: middle; font-size: 10.2px;" transform="translate(5,57)" y="0" x="0" id="text-entity-AUTHOR-c8b9204d-0c02-5422-8f8d-d29ca9ffce24-attr-2-type" class="er entityLabel">text</text><rect height="22" width="49.38990783691406" y="46" x="50.61009216308594" class="er attributeBoxEven"/><text style="dominant-baseline: middle; font-size: 10.2px;" transform="translate(55.61009216308594,57)" y="0" x="0" id="text-entity-AUTHOR-c8b9204d-0c02-5422-8f8d-d29ca9ffce24-attr-2-name" class="er entityLabel">bio</text></g><rect height="14" width="33.416015625" y="227.8673553466797" x="16.84589385986328" class="er relationshipLabelBox"/><text style="text-anchor: middle; dominant-baseline: middle; font-size: 12px;" y="234.8673553466797" x="33.55390167236328" id="rel1" class="er relationshipLabel">Makes</text><rect height="14" width="67.802734375" y="349.5132141113281" x="139.08853149414062" class="er relationshipLabelBox"/><text style="text-anchor: middle; dominant-baseline: middle; font-size: 12px;" y="356.5132141113281" x="172.98989868164062" id="rel2" class="er relationshipLabel">Is Requested</text><rect height="14" width="76.619140625" y="394" x="258.3486328125" class="er relationshipLabelBox"/><text style="text-anchor: middle; dominant-baseline: middle; font-size: 12px;" y="401" x="296.658203125" id="rel3" class="er relationshipLabel">May Belong to</text><rect height="14" width="58.625" y="349.7589416503906" x="419.4444274902344" class="er relationshipLabelBox"/><text style="text-anchor: middle; dominant-baseline: middle; font-size: 12px;" y="356.7589416503906" x="448.7569274902344" id="rel4" class="er relationshipLabel">Written by</text><rect height="14" width="137.3125" y="129.90756225585938" x="212.17080688476562" class="er relationshipLabelBox"/><text style="text-anchor: middle; dominant-baseline: middle; font-size: 12px;" y="136.90756225585938" x="280.8270568847656" id="rel5" class="er relationshipLabel">Borrows (At a given time)</text></svg>